#!OML:ASF H:\Dans Jumps\Project 1\Capture day 1\Session 1\subject.ASF
:FULLY-SPECIFIED
:DEGREES
176
root 0.315256 17.4879 3.1817 6.19422 -2.82972 -0.81268
lowerback -5.94691 -0.633695 -0.910984
upperback 2.01778 -0.801455 0.553799
thorax 5.45372 -0.437598 1.00191
lowerneck -9.8247 1.67042 1.18854
upperneck 2.41511 2.27282 -3.68705
head 2.54908 1.01615 -1.28046
rclavicle 1.2188e-014 7.55382e-015
rhumerus -15.6455 -49.5151 -5.9866
rradius 27.2295
rwrist 39.6511
rhand -5.91485 -23.1145
rfingers 7.12502
rthumb 19.9142 -52.1141
lclavicle 1.2188e-014 7.55382e-015
lhumerus -8.01778 36.3296 16.4534
lradius 25.1839
lwrist -4.08758
lhand -20.1321 -5.47273
lfingers 7.12502
lthumb 6.21225 24.4162
rfemur -16.7867 -4.43886 16.9392
rtibia 31.4387
rfoot -18.2743 -5.97434
rtoes 11.6056
lfemur -13.8792 7.43868 -17.2229
ltibia 27.6648
lfoot -15.0019 13.7092
ltoes 7.02201
177
root 0.31487 17.4884 3.18188 6.21487 -2.84505 -0.840382
lowerback -5.9344 -0.627441 -0.870515
upperback 2.04675 -0.797129 0.565832
thorax 5.47642 -0.434538 0.992127
lowerneck -9.79979 1.79137 1.23683
upperneck 1.82724 2.42336 -3.96128
head 2.35738 1.08828 -1.3686
rclavicle -6.34869e-015 1.96797e-014
rhumerus -15.7135 -49.3158 -5.94759
rradius 27.2833
rwrist 39.4527
rhand -5.88998 -23.1106
rfingers 7.12502
rthumb 19.9381 -52.1078
lclavicle -6.34869e-015 1.96797e-014
lhumerus -8.05206 36.5209 16.4444
lradius 25.1476
lwrist -4.18885
lhand -20.1562 -5.42361
lfingers 7.12502
lthumb 6.18901 24.466
rfemur -16.8139 -4.38133 16.975
rtibia 31.4376
rfoot -18.26 -6.01932
rtoes 11.6509
lfemur -13.9013 7.4519 -17.1921
ltibia 27.6625
lfoot -14.9949 13.7063
ltoes 7.00068
178
root 0.315233 17.4882 3.1818 6.22854 -2.86122 -0.82569
lowerback -5.89615 -0.625056 -0.875572
upperback 2.05399 -0.794509 0.57931
thorax 5.46242 -0.433652 1.00958
lowerneck -9.53557 1.84308 1.24556
upperneck 1.10561 2.48264 -4.31369
head 2.07774 1.11759 -1.48023
rclavicle -3.58434e-015 -2.23633e-016
rhumerus -15.7559 -49.3145 -5.88642
rradius 27.2894
rwrist 39.4583
rhand -5.9078 -22.9508
rfingers 7.12502
rthumb 19.921 -51.9498
lclavicle -3.58434e-015 -2.23633e-016
lhumerus -8.09987 36.7152 16.4396
lradius 25.0878
lwrist -4.35374
lhand -20.1638 -5.46073
lfingers 7.12502
lthumb 6.18165 24.4291
rfemur -16.8353 -4.38531 16.9568
rtibia 31.4365
rfoot -18.2445 -5.99333
rtoes 11.6407
lfemur -13.9151 7.44795 -17.2132
ltibia 27.6634
lfoot -14.9979 13.7239
ltoes 7.01491
179
root 0.316113 17.4889 3.18274 6.25568 -2.86924 -0.829023
lowerback -5.90989 -0.625367 -0.849128
upperback 2.08837 -0.797662 0.591551
thorax 5.50617 -0.434881 1.00682
lowerneck -9.44455 1.95799 1.35871
upperneck 0.422603 2.61364 -4.7368
head 1.85143 1.18068 -1.62981
rclavicle 2.50344e-015 8.72168e-015
rhumerus -15.7219 -50.0769 -5.81985
rradius 27.1283
rwrist 40.1691
rhand -5.92489 -22.9345
rfingers 7.12502
rthumb 19.9046 -51.9352
lclavicle 2.50344e-015 8.72168e-015
lhumerus -8.21668 36.7799 16.3878
lradius 25.1014
lwrist -4.40439
lhand -20.0965 -5.4448
lfingers 7.12502
lthumb 6.24665 24.4431
rfemur -16.8645 -4.39036 16.9594
rtibia 31.4299
rfoot -18.2386 -5.99338
rtoes 11.557
lfemur -13.9425 7.43921 -17.2174
ltibia 27.6695
lfoot -14.9947 13.7401
ltoes 7.02186
180
root 0.316239 17.4896 3.18227 6.27552 -2.87859 -0.851753
lowerback -5.87455 -0.628975 -0.811343
upperback 2.09599 -0.806657 0.608483
thorax 5.49392 -0.438323 1.00253
lowerneck -9.19894 2.01809 1.37066
upperneck -0.313793 2.67387 -5.0831
head 1.57652 1.21465 -1.74057
rclavicle 6.4605e-016 7.77745e-015
rhumerus -15.8346 -48.9712 -5.82915
rradius 27.3671
rwrist 39.1145
rhand -5.92857 -23.2611
rfingers 7.12502
rthumb 19.901 -52.2621
lclavicle 6.4605e-016 7.77745e-015
lhumerus -8.33742 36.8096 16.3107
lradius 25.0816
lwrist -4.40991
lhand -20.0692 -5.63044
lfingers 7.12502
lthumb 6.27306 24.2567
rfemur -16.8834 -4.35576 16.9858
rtibia 31.4297
rfoot -18.2249 -6.01079
rtoes 11.5384
lfemur -13.9665 7.45172 -17.1962
ltibia 27.67
lfoot -14.9871 13.7414
ltoes 6.94945
181
root 0.316867 17.4891 3.18254 6.2826 -2.87704 -0.853217
lowerback -5.87198 -0.626311 -0.777302
upperback 2.1378 -0.806152 0.612383
thorax 5.53583 -0.437326 0.987357
lowerneck -9.0239 2.09343 1.47497
upperneck -1.12527 2.73939 -5.54077
head 1.2974 1.251 -1.90438
rclavicle 1.2424e-015 7.8023e-015
rhumerus -15.9222 -49.0569 -5.7229
rradius 27.3685
rwrist 39.2923
rhand -5.72544 -23.0763
rfingers 7.12502
rthumb 20.0963 -52.0569
lclavicle 1.2424e-015 7.8023e-015
lhumerus -8.40156 36.9143 16.2748
lradius 25.0614
lwrist -4.48803
lhand -20.0468 -5.52474
lfingers 7.12502
lthumb 6.29463 24.3617
rfemur -16.8867 -4.34255 16.9869
rtibia 31.4277
rfoot -18.2275 -6.02858
rtoes 11.5667
lfemur -13.9748 7.44759 -17.1961
ltibia 27.674
lfoot -14.9736 13.7474
ltoes 6.96084
